<mxfile host="65bd71144e">
    <diagram id="X2EiPMQkLefjnM-7_s0j" name="第1頁">
        <mxGraphModel dx="820" dy="372" grid="1" gridSize="10" guides="1" tooltips="1" connect="1" arrows="1" fold="1" page="1" pageScale="1" pageWidth="827" pageHeight="1169" math="0" shadow="0">
            <root>
                <mxCell id="0"/>
                <mxCell id="1" parent="0"/>
                <mxCell id="2" value="用戶" style="rounded=0;whiteSpace=wrap;html=1;fillColor=none;fontSize=20;fontColor=#FFFFFF;strokeColor=#FFFFFF;" parent="1" vertex="1">
                    <mxGeometry x="80" y="40" width="160" height="60" as="geometry"/>
                </mxCell>
                <mxCell id="17" value="" style="edgeStyle=none;html=1;fillColor=none;fontSize=20;fontColor=#FFFFFF;strokeColor=#FFFFFF;" parent="1" source="3" target="8" edge="1">
                    <mxGeometry relative="1" as="geometry"/>
                </mxCell>
                <mxCell id="3" value="用戶ID&lt;br style=&quot;font-size: 20px;&quot;&gt;用戶名稱&lt;br style=&quot;font-size: 20px;&quot;&gt;電子郵件&lt;br style=&quot;font-size: 20px;&quot;&gt;密碼" style="whiteSpace=wrap;html=1;aspect=fixed;fillColor=none;fontSize=20;fontColor=#FFFFFF;strokeColor=#FFFFFF;" parent="1" vertex="1">
                    <mxGeometry x="80" y="100" width="160" height="160" as="geometry"/>
                </mxCell>
                <mxCell id="4" value="影片" style="rounded=0;whiteSpace=wrap;html=1;fillColor=none;fontSize=20;fontColor=#FFFFFF;strokeColor=#FFFFFF;" parent="1" vertex="1">
                    <mxGeometry x="560" y="40" width="160" height="60" as="geometry"/>
                </mxCell>
                <mxCell id="19" value="" style="edgeStyle=none;html=1;fillColor=none;fontSize=20;fontColor=#FFFFFF;strokeColor=#FFFFFF;" parent="1" source="5" target="10" edge="1">
                    <mxGeometry relative="1" as="geometry"/>
                </mxCell>
                <mxCell id="5" value="影片ID&lt;br style=&quot;font-size: 20px;&quot;&gt;標題&lt;br style=&quot;font-size: 20px;&quot;&gt;描述&lt;br style=&quot;font-size: 20px;&quot;&gt;標籤&lt;br style=&quot;font-size: 20px;&quot;&gt;上傳日期&lt;br style=&quot;font-size: 20px;&quot;&gt;觀看次數" style="whiteSpace=wrap;html=1;aspect=fixed;fillColor=none;fontSize=20;fontColor=#FFFFFF;strokeColor=#FFFFFF;" parent="1" vertex="1">
                    <mxGeometry x="560" y="100" width="160" height="160" as="geometry"/>
                </mxCell>
                <mxCell id="6" value="照片" style="rounded=0;whiteSpace=wrap;html=1;fillColor=none;fontSize=20;fontColor=#FFFFFF;strokeColor=#FFFFFF;" parent="1" vertex="1">
                    <mxGeometry x="320" y="40" width="160" height="60" as="geometry"/>
                </mxCell>
                <mxCell id="18" value="" style="edgeStyle=none;html=1;fillColor=none;fontSize=20;fontColor=#FFFFFF;strokeColor=#FFFFFF;" parent="1" source="7" target="12" edge="1">
                    <mxGeometry relative="1" as="geometry"/>
                </mxCell>
                <mxCell id="7" value="照片ID&lt;br style=&quot;font-size: 20px;&quot;&gt;標題&lt;br style=&quot;font-size: 20px;&quot;&gt;描述&lt;br style=&quot;font-size: 20px;&quot;&gt;標籤&lt;br style=&quot;font-size: 20px;&quot;&gt;上傳日期&lt;br style=&quot;font-size: 20px;&quot;&gt;喜歡數量" style="whiteSpace=wrap;html=1;aspect=fixed;fillColor=none;fontSize=20;fontColor=#FFFFFF;strokeColor=#FFFFFF;" parent="1" vertex="1">
                    <mxGeometry x="320" y="100" width="160" height="160" as="geometry"/>
                </mxCell>
                <mxCell id="8" value="留言&lt;span style=&quot;white-space: pre; font-size: 20px;&quot;&gt;&#9;&lt;/span&gt;" style="rounded=0;whiteSpace=wrap;html=1;fillColor=none;fontSize=20;fontColor=#FFFFFF;strokeColor=#FFFFFF;" parent="1" vertex="1">
                    <mxGeometry x="80" y="360" width="160" height="60" as="geometry"/>
                </mxCell>
                <mxCell id="20" style="edgeStyle=none;html=1;entryX=0.25;entryY=0;entryDx=0;entryDy=0;fillColor=none;fontSize=20;fontColor=#FFFFFF;strokeColor=#FFFFFF;" parent="1" source="9" target="15" edge="1">
                    <mxGeometry relative="1" as="geometry"/>
                </mxCell>
                <mxCell id="9" value="留言ID&lt;br style=&quot;font-size: 20px;&quot;&gt;用戶&lt;br style=&quot;font-size: 20px;&quot;&gt;內容&lt;br style=&quot;font-size: 20px;&quot;&gt;留言日期&lt;br style=&quot;font-size: 20px;&quot;&gt;" style="whiteSpace=wrap;html=1;aspect=fixed;fillColor=none;fontSize=20;fontColor=#FFFFFF;strokeColor=#FFFFFF;" parent="1" vertex="1">
                    <mxGeometry x="80" y="420" width="160" height="160" as="geometry"/>
                </mxCell>
                <mxCell id="10" value="帖子" style="rounded=0;whiteSpace=wrap;html=1;fillColor=none;fontSize=20;fontColor=#FFFFFF;strokeColor=#FFFFFF;" parent="1" vertex="1">
                    <mxGeometry x="560" y="360" width="160" height="60" as="geometry"/>
                </mxCell>
                <mxCell id="23" style="edgeStyle=none;html=1;entryX=0.75;entryY=0;entryDx=0;entryDy=0;fillColor=none;fontSize=20;fontColor=#FFFFFF;strokeColor=#FFFFFF;" parent="1" source="11" target="15" edge="1">
                    <mxGeometry relative="1" as="geometry"/>
                </mxCell>
                <mxCell id="11" value="帖子ID&lt;br style=&quot;font-size: 20px;&quot;&gt;作者：用戶&lt;br style=&quot;font-size: 20px;&quot;&gt;內容：媒體&lt;br style=&quot;font-size: 20px;&quot;&gt;發布日期" style="whiteSpace=wrap;html=1;aspect=fixed;fillColor=none;fontSize=20;fontColor=#FFFFFF;strokeColor=#FFFFFF;" parent="1" vertex="1">
                    <mxGeometry x="560" y="420" width="160" height="160" as="geometry"/>
                </mxCell>
                <mxCell id="12" value="時間軸" style="rounded=0;whiteSpace=wrap;html=1;fillColor=none;fontSize=20;fontColor=#FFFFFF;strokeColor=#FFFFFF;" parent="1" vertex="1">
                    <mxGeometry x="320" y="360" width="160" height="60" as="geometry"/>
                </mxCell>
                <mxCell id="14" value="帖子列表" style="rounded=0;whiteSpace=wrap;html=1;fillColor=none;fontSize=20;fontColor=#FFFFFF;strokeColor=#FFFFFF;" parent="1" vertex="1">
                    <mxGeometry x="320" y="420" width="160" height="100" as="geometry"/>
                </mxCell>
                <mxCell id="15" value="媒體" style="rounded=0;whiteSpace=wrap;html=1;fillColor=none;fontSize=20;fontColor=#FFFFFF;strokeColor=#FFFFFF;" parent="1" vertex="1">
                    <mxGeometry x="240" y="680" width="320" height="60" as="geometry"/>
                </mxCell>
                <mxCell id="16" value="媒體ID&lt;br style=&quot;font-size: 20px;&quot;&gt;文件類型：照片、影片&lt;br style=&quot;font-size: 20px;&quot;&gt;上傳路徑" style="rounded=0;whiteSpace=wrap;html=1;fillColor=none;fontSize=20;fontColor=#FFFFFF;strokeColor=#FFFFFF;" parent="1" vertex="1">
                    <mxGeometry x="240" y="740" width="320" height="100" as="geometry"/>
                </mxCell>
            </root>
        </mxGraphModel>
    </diagram>
</mxfile>